<?xml version="1.0" encoding="UTF-8" standalone="no"?>
<svg
   width="1400"
   height="1400"
   viewBox="0 0 370.408 370.43"
   version="1.1"
   id="svg2"
   sodipodi:docname="image.svg"
   inkscape:version="1.3.2 (091e20ef0f, 2023-11-25)"
   xmlns:inkscape="http://www.inkscape.org/namespaces/inkscape"
   xmlns:sodipodi="http://sodipodi.sourceforge.net/DTD/sodipodi-0.dtd"
   xmlns="http://www.w3.org/2000/svg"
   xmlns:svg="http://www.w3.org/2000/svg">
  <defs
     id="defs2" />
  <sodipodi:namedview
     id="namedview2"
     pagecolor="#ffffff"
     bordercolor="#000000"
     borderopacity="0.25"
     inkscape:showpageshadow="2"
     inkscape:pageopacity="0.0"
     inkscape:pagecheckerboard="0"
     inkscape:deskcolor="#d1d1d1"
     inkscape:zoom="0.62642857"
     inkscape:cx="700"
     inkscape:cy="700"
     inkscape:window-width="2048"
     inkscape:window-height="1083"
     inkscape:window-x="0"
     inkscape:window-y="0"
     inkscape:window-maximized="1"
     inkscape:current-layer="svg2" />
  <path
     style="fill:#fab610;fill-opacity:1;stroke-width:0.264583"
     d="M177.718 356.932a345 345 0 0 1-109.7-21.4c-15.9-6.3-28-13.4-36-21.2a34.6 34.6 0 0 1-10.1-15.4c-6.2-19.5-3-61.2 7.5-98.2 2.9-10.4 6.4-20 10.7-29.4 7.7-16.9 8.1-19.8 9.4-61 .4-13.2.4-14.5 1-23.1 1.2-22 3.8-35.3 8.2-42 1.6-2.3 3-3.5 5.2-4.5 1.6-.8 2-.9 4.4-.9 2.2 0 3 .2 5.1.9 4.6 1.5 9.6 4.4 16.2 9.3a265 265 0 0 1 15.6 12.6 381 381 0 0 0 16.2 13.4c3.8 2.8 2.8 2.7 8.4 1 2.7-.7 8.2-2.5 12.3-3.8a204.3 204.3 0 0 1 69.2-11.6c15.3-.2 25.1.4 38 2.3a179 179 0 0 1 44 12.2l9.3 3.7 9.2-5.3c17.4-10 27.2-14.4 36.8-16.6 3.7-1 9.6-1.2 12.3-.5 5 1.1 7.8 4.2 8.8 9.4.5 3.2.3 5.2-2 20l-3.6 24.6c-4 26.2-4.5 34.3-2.3 39.7 2 4.9 3.2 8.9 4.4 15 2.1 11 3.2 24.8 3 36.4-.3 8.2-.5 10.3-2 20a227.5 227.5 0 0 0-4.2 42.8c.2 7 .5 9.2 2.6 16.4.8 3 1 8.1.2 11.3-.9 4.5-2.7 8.4-6 13-2 2.8-8 8.7-11.5 11.5-33.4 25.8-102.5 41.8-170.6 39.5z"
     transform="translate(-9.153 -13.326)"
     id="path1" />
  <path
     style="fill:#34322c;fill-opacity:1;stroke-width:.264583"
     d="M309.718 283.632a107 107 0 0 1-18-8.7c-11.9-7.2-24.6-18.1-26.7-23-.7-1.5-.5-2 1-1.8 6 .8 37.5 20 47 28.5 2.2 2 3.2 4.2 2.2 5.1-.6.6-3 .5-5.4-.2zm-115.4-28c-2.9-2.7-9.1-10.9-13.4-17.6-6.1-9.8-7.8-12-9-12-.5 0-2.7 2-9 8.3-4.5 4.7-9.1 9.1-10.1 10-4.3 3.3-7.7 5.1-9.2 4.8-1-.3-3.4-2.5-4.9-4.5a95.5 95.5 0 0 1-12.3-28.7c-.7-2.8-1-9-.5-10.5.2-.7.6-1.3 1-1.6.5-.4.6-.4 1.3 0 2.6 1.3 5.8 6.8 10.5 17.8a80.3 80.3 0 0 0 6.5 13.1c.5.6 1 1 1.5 1 1.2 0 4-2.6 10.9-10 7.5-8.2 13.8-14 15-14 .4 0 1 .1 1.4.3 2 1 6.9 7.4 12.6 16.4 4.6 7.2 8 12.2 9.4 13.7 1 1.2 1.3 1.3 2 1.2 1.2-.3 5.3-3.6 12.9-10.5a74.5 74.5 0 0 1 15-12c2.2-1 5.1-.4 5.5 1 .6 2.4-1.9 5.7-9.8 13.2-13.1 12.4-23.3 20.8-25.7 21.2-.6.1-1 0-1.6-.6zm-157.4-.9c-1.1-.6-.3-2.6 2-4.5 7.7-6.5 36.2-20.4 48.3-23.5 4.4-1.1 5.7-1 5.3.6-1 4-30.5 20.7-46 25.9-4.8 1.6-8.4 2.2-9.6 1.5zm278.2-18.7c-8.5-.6-22-3-32.7-5.6-11.7-3-16.5-5.8-13.6-8 1.7-1.3 2.8-1.5 6-1.5a162 162 0 0 1 48.5 11.6c1.6 1 2.3 2 1.8 2.6-.7.9-4.8 1.2-10 .9zm-261.5-29.7c-6.8-.3-10-.8-10-1.7 0-.9 4.9-2.3 11.3-3.4 10.4-1.6 21.1-2.6 31.6-2.6 9 0 10 0 12.3 1.5 1.6 1 2.3 2.1 2 3-.5 1.2-5 2.3-12 3-4 .4-28.8.5-35.2.2zm200.5-5a19 19 0 0 1-10.7-5.8 25.7 25.7 0 0 1-6-8.3 30 30 0 0 1 6.6-33.1c5-5 10.8-7.7 17-7.6 3.6 0 5.7.5 9.2 2.2 4.7 2.2 7.3 4.6 9.5 8.7 2.3 4.2 3.4 8.6 3.4 13.9 0 5.4-1 9.4-3.4 14.3a26.9 26.9 0 0 1-21.9 15.8h-3.7zm-145.4-20.6c-5-1.3-9.7-5.1-12-9.8-2.8-5.7-3.3-12-1.3-18.8 3.4-11.8 14-20.8 25.2-21.3 7.2-.4 13.1 2.8 17.4 9.3 2.8 4.4 4 8.3 3.7 13a30 30 0 0 1-10 20c-4.1 4-8.4 6.4-13.3 7.6-2.9.7-7 .7-9.7 0z"
     transform="translate(-9.153 -13.326)"
     id="path2" />
</svg>
