<?xml version="1.0" encoding="UTF-8" standalone="no"?>
<svg
   width="16"
   height="16"
   viewBox="0 0 4.2332343 4.2334857"
   version="1.1"
   id="svg2"
   sodipodi:docname="image.svg"
   inkscape:version="1.3.2 (091e20ef0f, 2023-11-25)"
   xmlns:inkscape="http://www.inkscape.org/namespaces/inkscape"
   xmlns:sodipodi="http://sodipodi.sourceforge.net/DTD/sodipodi-0.dtd"
   xmlns="http://www.w3.org/2000/svg"
   xmlns:svg="http://www.w3.org/2000/svg">
  <defs
     id="defs2" />
  <sodipodi:namedview
     id="namedview2"
     pagecolor="#ffffff"
     bordercolor="#000000"
     borderopacity="0.25"
     inkscape:showpageshadow="2"
     inkscape:pageopacity="0.0"
     inkscape:pagecheckerboard="0"
     inkscape:deskcolor="#d1d1d1"
     inkscape:zoom="10.657741"
     inkscape:cx="15.434791"
     inkscape:cy="2.1111416"
     inkscape:window-width="1280"
     inkscape:window-height="731"
     inkscape:window-x="0"
     inkscape:window-y="0"
     inkscape:window-maximized="1"
     inkscape:current-layer="svg2" />
  <g
     id="g1"
     transform="matrix(0.54310871,0,0,0.54310871,-0.1773959,-0.11408547)">
    <path
       style="fill:#fab610;fill-opacity:1;stroke-width:0.00587294"
       d="M 3.854534,7.6233027 A 7.6579463,7.6579463 0 0 1 1.4195284,7.1482881 C 1.0665969,7.0084475 0.79801416,6.8508491 0.62043856,6.6777128 A 0.76801431,0.76801431 0 0 1 0.39624932,6.3358797 C 0.25862825,5.9030395 0.32965884,4.9774268 0.56272633,4.1561398 0.62709726,3.9252917 0.70478706,3.7122007 0.80023376,3.5035496 0.97114996,3.1284211 0.98002916,3.0640498 1.008885,2.1495361 1.017755,1.8565365 1.017755,1.8276801 1.031081,1.6367863 1.057717,1.1484536 1.115429,0.85323423 1.2130959,0.70451463 c 0.035517,-0.051053 0.066591,-0.077689 0.1154236,-0.099887 0.035517,-0.017759 0.044394,-0.019976 0.097666,-0.019976 0.048833,0 0.066591,0.00444 0.1132041,0.019976 0.1021064,0.033295 0.213091,0.097666 0.359591,0.2064315 A 5.8821906,5.8821906 0 0 1 2.2452532,1.0907407 8.4570361,8.4570361 0 0 0 2.6048446,1.3881802 c 0.084344,0.062152 0.062149,0.059932 0.1864542,0.022197 0.059937,-0.015537 0.1820141,-0.055493 0.2730217,-0.084349 A 4.5348358,4.5348358 0 0 1 4.6003487,1.068543 c 0.3396145,-0.00444 0.5571445,0.00887 0.8434845,0.051053 A 3.9732533,3.9732533 0 0 1 6.4204986,1.3903985 L 6.6269309,1.4725268 6.8311426,1.3548831 C 7.2173694,1.1329137 7.4348994,1.0352472 7.6479904,0.98641383 c 0.082132,-0.022196 0.2130897,-0.026636 0.2730216,-0.011098 0.110988,0.024418 0.173136,0.0932269 0.1953336,0.20865117 0.011063,0.071031 0.00664,0.1154247 -0.044391,0.4439391 l -0.079908,0.5460461 c -0.088793,0.58156 -0.09989,0.7613552 -0.051051,0.8812187 0.044391,0.1087649 0.071034,0.1975527 0.097666,0.3329543 0.046615,0.2441666 0.071034,0.5504843 0.066598,0.807969 -0.00664,0.1820145 -0.011063,0.2286283 -0.044391,0.4439386 a 5.0498051,5.0498051 0 0 0 -0.093229,0.9500295 c 0.00443,0.1553788 0.011063,0.2042122 0.057712,0.3640299 0.017759,0.066591 0.022195,0.1797953 0.00443,0.2508256 -0.019976,0.099886 -0.059941,0.1864544 -0.1331867,0.2885603 -0.044391,0.062151 -0.177575,0.1931135 -0.2552643,0.255265 -0.741378,0.5726812 -2.2751879,0.9278324 -3.786799,0.8767792 z"
       id="path1" />
    <path
       style="fill:#34322c;fill-opacity:1;stroke-width:0.00587294"
       d="M 6.7845302,5.9962666 A 2.3750731,2.3750731 0 0 1 6.384985,5.8031532 C 6.1208414,5.6433351 5.8389405,5.4013882 5.7923269,5.2926232 c -0.015534,-0.033295 -0.011063,-0.044394 0.022195,-0.039955 0.1331821,0.017759 0.8323856,0.443939 1.0432559,0.632613 0.048839,0.044394 0.071034,0.093227 0.048839,0.113204 -0.013322,0.013319 -0.066598,0.011098 -0.1198638,-0.00444 z M 4.2230023,5.374752 C 4.158629,5.3148201 4.0210102,5.1328055 3.9255635,4.9840859 3.7901618,4.7665559 3.7524275,4.7177225 3.7257909,4.7177225 c -0.011063,0 -0.059937,0.044394 -0.1997726,0.1842346 C 3.4261283,5.006283 3.3240262,5.1039492 3.3018297,5.1239264 3.2063877,5.1971764 3.1309133,5.2371316 3.0976181,5.2304718 3.0754231,5.2238118 3.0221471,5.1749788 2.9888542,5.1305848 A 2.1198083,2.1198083 0 0 1 2.7158314,4.4935334 C 2.7002974,4.4313824 2.6936364,4.293761 2.7047684,4.2604653 c 0.00443,-0.015537 0.013322,-0.028857 0.022195,-0.035517 0.011063,-0.00887 0.013322,-0.00887 0.028856,0 0.057712,0.028856 0.1287419,0.150939 0.2330678,0.3951055 a 1.7824147,1.7824147 0 0 0 0.1442798,0.29078 c 0.011063,0.013319 0.022195,0.022196 0.033293,0.022196 0.026632,0 0.088793,-0.057711 0.2419471,-0.2219693 0.1664774,-0.1820149 0.3063181,-0.3107571 0.3329536,-0.3107571 0.00885,0 0.022195,0.00224 0.031069,0.00666 0.044391,0.022196 0.153159,0.1642575 0.2796825,0.36403 0.102103,0.1598177 0.177575,0.2708028 0.2086508,0.3040981 0.022195,0.026636 0.028856,0.028857 0.04439,0.026636 0.026632,-0.00666 0.1176443,-0.079909 0.2863412,-0.2330678 A 1.6536724,1.6536724 0 0 1 4.9244498,4.602297 C 4.9732888,4.580101 5.0376503,4.593427 5.0465319,4.624493 5.0598539,4.677766 5.0043539,4.7510153 4.829002,4.9174926 4.5382217,5.1927347 4.3118137,5.3791891 4.2585403,5.3880678 c -0.013322,0.00224 -0.022195,0 -0.035517,-0.01332 z M 0.72920356,5.3547766 c -0.0244183,-0.013319 -0.006661,-0.057712 0.0443941,-0.099887 0.1709165,-0.1442804 0.80352954,-0.4528177 1.07211264,-0.5216284 0.097666,-0.024418 0.1265224,-0.022197 0.1176443,0.013319 -0.022195,0.088788 -0.6770073,0.4594769 -1.02106024,0.5749013 -0.1065454,0.035517 -0.1864542,0.048833 -0.2130908,0.033294 z M 6.904394,4.9396935 C 6.7157202,4.9263736 6.4160607,4.8731029 6.1785538,4.8153907 5.9188493,4.7487998 5.8123038,4.6866486 5.8766748,4.6378152 c 0.03773,-0.028856 0.062149,-0.033295 0.1331821,-0.033295 a 3.5959052,3.5959052 0 0 1 1.0765523,0.2574846 c 0.035517,0.022196 0.051051,0.044394 0.039954,0.057711 -0.015534,0.019976 -0.1065513,0.026636 -0.221969,0.019976 z M 1.0998925,4.2804425 c -0.15093944,-0.00666 -0.22196964,-0.017759 -0.22196964,-0.037734 0,-0.019976 0.108765,-0.051054 0.25082564,-0.07547 0.2308484,-0.035517 0.4683555,-0.057711 0.7014239,-0.057711 0.1997726,0 0.2219691,0 0.2730217,0.033295 0.035517,0.022196 0.051052,0.046614 0.044391,0.066591 -0.011063,0.026635 -0.1109881,0.051053 -0.2663631,0.06659 -0.088788,0.00887 -0.639272,0.011098 -0.7813326,0.00444 z M 5.5503798,4.1694579 A 0.42174197,0.42174197 0 0 1 5.3128729,4.0407157 0.5704615,0.5704615 0 0 1 5.1796908,3.8564811 0.66590836,0.66590836 0 0 1 5.3261912,3.1217621 c 0.110988,-0.1109845 0.2397265,-0.1709165 0.3773476,-0.1686969 0.079908,0 0.1265224,0.011098 0.2042117,0.048833 0.1043271,0.048833 0.1620383,0.1021064 0.2108714,0.1931134 0.051051,0.093227 0.075471,0.1908937 0.075471,0.3085375 0,0.1198633 -0.022195,0.2086512 -0.075471,0.3174165 A 0.59709785,0.59709785 0 0 1 5.6325093,4.1716771 H 5.5503775 Z M 2.3229448,3.7122007 C 2.2119568,3.6833434 2.1076343,3.5989967 2.0565805,3.4946708 1.9944314,3.3681484 1.9833338,3.2283073 2.0277244,3.0773684 c 0.075471,-0.261924 0.3107571,-0.4616965 0.5593628,-0.472795 0.1598176,-0.00887 0.2907802,0.062152 0.3862269,0.2064316 0.062149,0.097666 0.088793,0.1842346 0.082132,0.2885602 A 0.66590836,0.66590836 0 0 1 2.8334733,3.5435043 c -0.091005,0.088788 -0.1864542,0.1420603 -0.2952192,0.1686964 -0.064373,0.015537 -0.1553786,0.015537 -0.2153093,0 z"
       id="path2" />
  </g>
</svg>
